<?xml version="1.0" encoding="iso-8859-1"?>
<!-- Uploaded to: SVG Repo, www.svgrepo.com, Transformed by: SVG Repo Tools -->
<svg fill="#000000" height="800px" width="800px" version="1.1" id="Layer_1" xmlns="http://www.w3.org/2000/svg" xmlns:xlink="http://www.w3.org/1999/xlink" 
	 viewBox="0 0 512.003 512.003" xml:space="preserve">
<g>
	<g>
		<path d="M512.003,51.202c0-28.279-22.921-51.2-51.2-51.2c-26.607,0-48.213,20.369-50.705,46.31
			c-58.752-34.005-135.151-26.479-185.37,23.748c-52.002,51.994-101.12,101.112-199.125,101.112
			c-10.351,0-19.686,6.238-23.654,15.804c-3.959,9.566-1.775,20.574,5.547,27.904l178.022,178.022
			c-19.046,11.017-31.915,31.479-31.915,55.1c0,35.345,28.655,64,64,64c23.637,0,43.989-12.954,54.989-32.043l24.542,24.542
			c7.322,7.322,18.33,9.515,27.896,5.547c9.566-3.959,15.804-13.295,15.804-23.654c0-98.005,49.118-147.123,101.111-199.117
			c50.219-50.219,57.754-126.626,23.74-185.37C491.634,99.415,512.003,77.809,512.003,51.202z M217.603,486.402
			c-21.171,0-38.4-17.229-38.4-38.4c0-16.648,10.871-30.404,25.728-35.703l48.35,48.35
			C247.973,475.505,234.26,486.402,217.603,486.402z M315.233,486.402C279.035,450.195,61.81,232.97,25.603,196.772
			c24.132,0,45.466-2.799,64.836-7.569l232.363,232.363C318.041,440.936,315.233,462.261,315.233,486.402z M331.421,393.969
			L118.028,180.584c8.713-3.354,17.041-7.091,24.943-11.264l199.714,199.714C338.512,376.928,334.774,385.256,331.421,393.969z
			 M423.845,269.177c-24.132,24.132-48.247,48.299-67.61,77.201L165.627,155.769c28.902-19.371,53.069-43.477,77.201-67.61
			c49.988-49.988,131.029-49.988,181.018,0C473.834,138.148,473.834,219.189,423.845,269.177z M460.803,76.802
			c-14.114,0-25.6-11.486-25.6-25.6s11.486-25.6,25.6-25.6c14.114,0,25.6,11.486,25.6,25.6S474.917,76.802,460.803,76.802z"/>
	</g>
</g>
<g>
</g>
<g>
</g>
<g>
</g>
<g>
</g>
<g>
</g>
<g>
</g>
<g>
</g>
<g>
</g>
<g>
</g>
<g>
</g>
<g>
</g>
<g>
</g>
<g>
</g>
<g>
</g>
<g>
</g>
</svg>